<svg id="Capa_1" data-name="Capa 1" xmlns="http://www.w3.org/2000/svg" viewBox="0 0 838.27051 196.342"><polygon points="0 160.412 0 0 60.208 29.085 79.671 58.974 99.133 29.085 159.344 0.002 159.344 160.412 94.78 196.339 94.78 123.485 79.671 138.594 64.561 123.482 64.561 196.342 0 160.412" style="fill:#131b23"/><polygon points="79.671 115.282 111.265 83.688 111.265 168.304 142.859 150.722 142.859 26.269 110.441 41.929 79.671 89.182 48.901 41.929 16.483 26.269 16.483 150.722 48.077 168.304 48.077 83.688 79.671 115.282" style="fill:#a31621"/><g style="isolation:isolate"><text transform="translate(181.59085 141.63281)" style="font-size:139.75033569335938px;fill:#131b23;font-family:ReemKufi-Bold, Reem Kufi;font-weight:700;letter-spacing:0.02500273511089701em">IN </text><text transform="translate(376.2598 141.63281)" style="font-size:139.75033569335938px;fill:#a31621;font-family:ReemKufi-Bold, Reem Kufi;font-weight:700;letter-spacing:0.024999241156856918em">SH</text><text transform="translate(577.77783 141.63281)" style="font-size:139.75033569335938px;fill:#a31621;font-family:ReemKufi-Bold, Reem Kufi;font-weight:700;letter-spacing:-0.03399966676413343em">O</text><text transform="translate(691.95264 141.63281)" style="font-size:139.75033569335938px;fill:#a31621;font-family:ReemKufi-Bold, Reem Kufi;font-weight:700;letter-spacing:0.023999970301390658em">W</text></g></svg>